<mxfile host="app.diagrams.net" agent="Mozilla/5.0 (Windows NT 10.0; Win64; x64; rv:138.0) Gecko/20100101 Firefox/138.0" version="27.0.5">
  <diagram name="Page-1" id="nT4d5srUxEJyjOsfEKic">
    <mxGraphModel dx="1310" dy="785" grid="1" gridSize="10" guides="1" tooltips="1" connect="1" arrows="1" fold="1" page="1" pageScale="1" pageWidth="3300" pageHeight="4681" math="0" shadow="0">
      <root>
        <mxCell id="0" />
        <mxCell id="1" parent="0" />
        <mxCell id="ESYJbk5uElQ6rcItPSLI-3" style="edgeStyle=orthogonalEdgeStyle;rounded=0;orthogonalLoop=1;jettySize=auto;html=1;exitX=1;exitY=0.5;exitDx=0;exitDy=0;entryX=0;entryY=0.5;entryDx=0;entryDy=0;" edge="1" parent="1" source="ESYJbk5uElQ6rcItPSLI-1" target="ESYJbk5uElQ6rcItPSLI-2">
          <mxGeometry relative="1" as="geometry" />
        </mxCell>
        <mxCell id="ESYJbk5uElQ6rcItPSLI-1" value="data&#xa;Raw Patient Data" style="rectangle;fillColor=#fff2cc;strokeColor=#d6b656;" name="data" vertex="1" parent="1">
          <mxGeometry x="340" y="230" width="100" height="50" as="geometry" />
        </mxCell>
        <mxCell id="ESYJbk5uElQ6rcItPSLI-5" style="edgeStyle=orthogonalEdgeStyle;rounded=0;orthogonalLoop=1;jettySize=auto;html=1;exitX=1;exitY=0.5;exitDx=0;exitDy=0;entryX=0;entryY=0.5;entryDx=0;entryDy=0;" edge="1" parent="1" source="ESYJbk5uElQ6rcItPSLI-2" target="ESYJbk5uElQ6rcItPSLI-4">
          <mxGeometry relative="1" as="geometry" />
        </mxCell>
        <mxCell id="ESYJbk5uElQ6rcItPSLI-2" value="transform" style="rounded=1;whiteSpace=wrap;html=1;arcSize=50;fillColor=#f8cecc;strokeColor=#b85450;" name="transform" vertex="1" parent="1">
          <mxGeometry x="520" y="230" width="100" height="50" as="geometry" />
        </mxCell>
        <mxCell id="ESYJbk5uElQ6rcItPSLI-7" style="edgeStyle=orthogonalEdgeStyle;rounded=0;orthogonalLoop=1;jettySize=auto;html=1;exitX=1;exitY=0.5;exitDx=0;exitDy=0;entryX=0;entryY=0.5;entryDx=0;entryDy=0;" edge="1" parent="1" source="ESYJbk5uElQ6rcItPSLI-4" target="ESYJbk5uElQ6rcItPSLI-6">
          <mxGeometry relative="1" as="geometry" />
        </mxCell>
        <mxCell id="ESYJbk5uElQ6rcItPSLI-4" value="data&#xa;Processed Data" style="rectangle;fillColor=#fff2cc;strokeColor=#d6b656;" name="data" vertex="1" parent="1">
          <mxGeometry x="700" y="230" width="100" height="50" as="geometry" />
        </mxCell>
        <mxCell id="ESYJbk5uElQ6rcItPSLI-9" style="edgeStyle=orthogonalEdgeStyle;rounded=0;orthogonalLoop=1;jettySize=auto;html=1;exitX=1;exitY=0.5;exitDx=0;exitDy=0;entryX=0.5;entryY=0;entryDx=0;entryDy=0;" edge="1" parent="1" source="ESYJbk5uElQ6rcItPSLI-6" target="ESYJbk5uElQ6rcItPSLI-8">
          <mxGeometry relative="1" as="geometry" />
        </mxCell>
        <mxCell id="ESYJbk5uElQ6rcItPSLI-6" value="transform" style="rounded=1;whiteSpace=wrap;html=1;arcSize=50;fillColor=#f8cecc;strokeColor=#b85450;" name="transform" vertex="1" parent="1">
          <mxGeometry x="880" y="230" width="100" height="50" as="geometry" />
        </mxCell>
        <mxCell id="ESYJbk5uElQ6rcItPSLI-20" style="edgeStyle=orthogonalEdgeStyle;rounded=0;orthogonalLoop=1;jettySize=auto;html=1;exitX=1;exitY=0.5;exitDx=0;exitDy=0;entryX=0;entryY=0.5;entryDx=0;entryDy=0;" edge="1" parent="1" source="ESYJbk5uElQ6rcItPSLI-8" target="ESYJbk5uElQ6rcItPSLI-19">
          <mxGeometry relative="1" as="geometry" />
        </mxCell>
        <mxCell id="ESYJbk5uElQ6rcItPSLI-8" value="data&#xa;Crisp Values" style="rectangle;fillColor=#fff2cc;strokeColor=#d6b656;" name="data" vertex="1" parent="1">
          <mxGeometry x="1010" y="330" width="100" height="50" as="geometry" />
        </mxCell>
        <mxCell id="ESYJbk5uElQ6rcItPSLI-14" style="edgeStyle=orthogonalEdgeStyle;rounded=0;orthogonalLoop=1;jettySize=auto;html=1;exitX=0.5;exitY=1;exitDx=0;exitDy=0;" edge="1" parent="1" source="ESYJbk5uElQ6rcItPSLI-10" target="ESYJbk5uElQ6rcItPSLI-13">
          <mxGeometry relative="1" as="geometry" />
        </mxCell>
        <mxCell id="ESYJbk5uElQ6rcItPSLI-10" value="transform" style="rounded=1;whiteSpace=wrap;html=1;arcSize=50;fillColor=#f8cecc;strokeColor=#b85450;" name="transform" vertex="1" parent="1">
          <mxGeometry x="700" y="360" width="100" height="50" as="geometry" />
        </mxCell>
        <mxCell id="ESYJbk5uElQ6rcItPSLI-12" value="&lt;div&gt;error&lt;/div&gt;&lt;div&gt;|&lt;/div&gt;&lt;div&gt;|&lt;/div&gt;&lt;div&gt;v&lt;/div&gt;" style="text;html=1;align=center;verticalAlign=middle;whiteSpace=wrap;rounded=0;dashed=1;fillColor=#f5f5f5;fontColor=#333333;strokeColor=#666666;strokeWidth=2;" name="text" vertex="1" parent="1">
          <mxGeometry x="735" y="280" width="30" height="80" as="geometry" />
        </mxCell>
        <mxCell id="ESYJbk5uElQ6rcItPSLI-16" style="edgeStyle=orthogonalEdgeStyle;rounded=0;orthogonalLoop=1;jettySize=auto;html=1;exitX=0.5;exitY=1;exitDx=0;exitDy=0;entryX=0;entryY=0.5;entryDx=0;entryDy=0;" edge="1" parent="1" source="ESYJbk5uElQ6rcItPSLI-13" target="ESYJbk5uElQ6rcItPSLI-15">
          <mxGeometry relative="1" as="geometry" />
        </mxCell>
        <mxCell id="ESYJbk5uElQ6rcItPSLI-13" value="data&#xa;Selected Variables" style="rectangle;fillColor=#fff2cc;strokeColor=#d6b656;" name="data" vertex="1" parent="1">
          <mxGeometry x="700" y="490" width="100" height="50" as="geometry" />
        </mxCell>
        <mxCell id="ESYJbk5uElQ6rcItPSLI-18" style="edgeStyle=orthogonalEdgeStyle;rounded=0;orthogonalLoop=1;jettySize=auto;html=1;exitX=1;exitY=0.5;exitDx=0;exitDy=0;entryX=0;entryY=0.5;entryDx=0;entryDy=0;" edge="1" parent="1" source="ESYJbk5uElQ6rcItPSLI-15" target="ESYJbk5uElQ6rcItPSLI-17">
          <mxGeometry relative="1" as="geometry" />
        </mxCell>
        <mxCell id="ESYJbk5uElQ6rcItPSLI-15" value="generate:train" style="rounded=1;whiteSpace=wrap;html=1;arcSize=50;fillColor=#e1d5e7;strokeColor=#9673a6;" name="generate:train" vertex="1" parent="1">
          <mxGeometry x="830" y="590" width="100" height="50" as="geometry" />
        </mxCell>
        <mxCell id="ESYJbk5uElQ6rcItPSLI-24" style="edgeStyle=orthogonalEdgeStyle;rounded=0;orthogonalLoop=1;jettySize=auto;html=1;exitX=1;exitY=0.5;exitDx=0;exitDy=0;entryX=0;entryY=0.5;entryDx=0;entryDy=0;" edge="1" parent="1" source="ESYJbk5uElQ6rcItPSLI-17" target="ESYJbk5uElQ6rcItPSLI-23">
          <mxGeometry relative="1" as="geometry" />
        </mxCell>
        <mxCell id="ESYJbk5uElQ6rcItPSLI-17" value="model:ML&#xa;MLP" style="shape=hexagon;perimeter=hexagonPerimeter2;fillColor=#b0e3e6;strokeColor=#0e8088;" name="model" vertex="1" parent="1">
          <mxGeometry x="1000" y="590" width="120" height="50" as="geometry" />
        </mxCell>
        <mxCell id="ESYJbk5uElQ6rcItPSLI-22" style="edgeStyle=orthogonalEdgeStyle;rounded=0;orthogonalLoop=1;jettySize=auto;html=1;exitX=0.5;exitY=1;exitDx=0;exitDy=0;entryX=0.5;entryY=0;entryDx=0;entryDy=0;" edge="1" parent="1" source="ESYJbk5uElQ6rcItPSLI-19" target="ESYJbk5uElQ6rcItPSLI-21">
          <mxGeometry relative="1" as="geometry" />
        </mxCell>
        <mxCell id="ESYJbk5uElQ6rcItPSLI-19" value="generate:train" style="rounded=1;whiteSpace=wrap;html=1;arcSize=50;fillColor=#e1d5e7;strokeColor=#9673a6;" name="generate:train" vertex="1" parent="1">
          <mxGeometry x="1190" y="330" width="100" height="50" as="geometry" />
        </mxCell>
        <mxCell id="ESYJbk5uElQ6rcItPSLI-21" value="model:semantic&#xa;Fuzzy Regression" style="shape=hexagon;perimeter=hexagonPerimeter2;fillColor=#b0e3e6;strokeColor=#0e8088;" name="model" vertex="1" parent="1">
          <mxGeometry x="1180" y="460" width="120" height="50" as="geometry" />
        </mxCell>
        <mxCell id="ESYJbk5uElQ6rcItPSLI-30" style="edgeStyle=orthogonalEdgeStyle;rounded=0;orthogonalLoop=1;jettySize=auto;html=1;exitX=1;exitY=0.5;exitDx=0;exitDy=0;entryX=0;entryY=0.5;entryDx=0;entryDy=0;" edge="1" parent="1" source="ESYJbk5uElQ6rcItPSLI-23" target="ESYJbk5uElQ6rcItPSLI-29">
          <mxGeometry relative="1" as="geometry" />
        </mxCell>
        <mxCell id="ESYJbk5uElQ6rcItPSLI-23" value="infer:predict" style="rounded=1;whiteSpace=wrap;html=1;arcSize=50;fillColor=#bac8d3;strokeColor=#23445d;" name="infer:deduce" vertex="1" parent="1">
          <mxGeometry x="1190" y="590" width="100" height="50" as="geometry" />
        </mxCell>
        <mxCell id="ESYJbk5uElQ6rcItPSLI-26" value="&lt;div&gt;error&lt;/div&gt;&lt;div&gt;|&lt;/div&gt;&lt;div&gt;|&lt;/div&gt;&lt;div&gt;v&lt;/div&gt;" style="text;html=1;align=center;verticalAlign=middle;whiteSpace=wrap;rounded=0;dashed=1;fillColor=#f5f5f5;fontColor=#333333;strokeColor=#666666;strokeWidth=2;" name="text" vertex="1" parent="1">
          <mxGeometry x="1225" y="510" width="30" height="80" as="geometry" />
        </mxCell>
        <mxCell id="ESYJbk5uElQ6rcItPSLI-28" style="edgeStyle=orthogonalEdgeStyle;rounded=0;orthogonalLoop=1;jettySize=auto;html=1;entryX=0.5;entryY=1;entryDx=0;entryDy=0;" edge="1" parent="1" source="ESYJbk5uElQ6rcItPSLI-27" target="ESYJbk5uElQ6rcItPSLI-23">
          <mxGeometry relative="1" as="geometry" />
        </mxCell>
        <mxCell id="ESYJbk5uElQ6rcItPSLI-27" value="data&#xa;New Patient Data" style="rectangle;fillColor=#fff2cc;strokeColor=#d6b656;" name="data" vertex="1" parent="1">
          <mxGeometry x="1190" y="720" width="100" height="50" as="geometry" />
        </mxCell>
        <mxCell id="ESYJbk5uElQ6rcItPSLI-29" value="symbol&#xa;Predicted&#xa;Triglyceride Levels" style="rectangle;fillColor=#dae8fc;strokeColor=#6c8ebf;" name="symbol" vertex="1" parent="1">
          <mxGeometry x="1370" y="590" width="100" height="50" as="geometry" />
        </mxCell>
      </root>
    </mxGraphModel>
  </diagram>
</mxfile>
